<svg xmlns="http://www.w3.org/2000/svg" data-name="Layer 1" width="550" height="550" viewBox="0 0 756.4834 771.24242" xmlns:xlink="http://www.w3.org/1999/xlink"><title>moments</title><path d="M721.52783,375.35584a2.659,2.659,0,0,0-2.65625,2.65625V560.37244a2.659,2.659,0,0,0,2.65625,2.65625H975.58545a2.659,2.659,0,0,0,2.65625-2.65625V378.01209a2.659,2.659,0,0,0-2.65625-2.65625Z"   transform="translate(-221.7583 -64.37879)" fill="#94a3b800"/><polygon points="616.918 618.356 623.81 638.335 625.939 630.357 622.292 619.792 616.918 618.356" fill="#f2f2f200"/><polygon points="649.978 627.171 655.285 642.548 657.407 634.569 655.352 628.607 649.978 627.171" fill="#f2f2f200"/><polygon points="602.024 614.387 609.185 635.147 614.56 636.577 607.399 615.817 602.024 614.387" fill="#f2f2f200"/><circle cx="40.01667" cy="298.31341" r="12" fill="#28256600"/><path d="M266.84016,351.82508a11.984,11.984,0,0,1-13.13049,19.73407,11.98967,11.98967,0,1,0,13.13049-19.73407Z" transform="translate(-221.7583 -64.37879)" opacity="0.2"/><ellipse cx="348.51667" cy="311.31341" rx="29.5" ry="12" fill="#94a3b8"/><path d="M570.275,363.6922q-1.51913,0-3,.06147c14.88324.61151,26.5,5.72308,26.5,11.93853s-11.61676,11.327-26.5,11.93854q1.47978.06079,3,.06146c16.29242,0,29.5-5.37262,29.5-12S586.56739,363.6922,570.275,363.6922Z" transform="translate(-221.7583 -64.37879)" opacity="0.2"/><path d="M608.775,375.6922h-148v-16a3,3,0,0,0-3-3h-82a3,3,0,0,0-3,3v16h-86v-10a3,3,0,0,0-3-3h-44a3,3,0,0,0-3,3v10h-12a2.996,2.996,0,0,0-3,3v197a2.996,2.996,0,0,0,3,3h384a2.996,2.996,0,0,0,3-3v-197A2.996,2.996,0,0,0,608.775,375.6922Z" transform="translate(-221.7583 -64.37879)" fill="#94a3b8"/><path d="M608.7583,564.00037h-384a2.996,2.996,0,0,1-3-3v14a2.996,2.996,0,0,0,3,3h384a2.996,2.996,0,0,0,3-3v-14A2.996,2.996,0,0,1,608.7583,564.00037Z" transform="translate(-221.7583 -64.37879)" opacity="0.2"/><rect x="0.01667" y="403.31341" width="390" height="38" opacity="0.2"/><rect x="0.01667" y="384.31341" width="390" height="38" opacity="0.2"/><rect x="0.01667" y="393.31341" width="390" height="38" fill="#282566"/><circle cx="195.01667" cy="412.31341" r="76" fill="#282566"/><path d="M475.31532,428.228a75.99569,75.99569,0,0,1-124.08069,86.92835A75.99623,75.99623,0,1,0,475.31532,428.228Z" transform="translate(-221.7583 -64.37879)" opacity="0.2"/><circle cx="195.01667" cy="412.31341" r="56.55814" fill="#94a3b8"/><path d="M460.775,476.6922a43.723,43.723,0,0,1-3.57,17.37,43.131,43.131,0,0,1-4.75,8.37,43.99842,43.99842,0,1,1-61.42-61.42,43.12475,43.12475,0,0,1,8.37-4.75,44.00517,44.00517,0,0,1,61.37,40.43Z" transform="translate(-221.7583 -64.37879)" fill="#fff"/><path d="M460.305,470.28217a43.92832,43.92832,0,0,0-16.44751-28.26538A44.00211,44.00211,0,0,1,447.205,483.0622a43.131,43.131,0,0,1-4.75,8.37,43.973,43.973,0,0,1-62.76929,8.91852,43.9784,43.9784,0,0,0,72.76929,2.08148,43.131,43.131,0,0,0,4.75-8.37,44.01773,44.01773,0,0,0,3.1-23.78Z" transform="translate(-221.7583 -64.37879)" opacity="0.2"/></svg>